<svg width="16" height="16" viewBox="0 0 16 16" fill="none" xmlns="http://www.w3.org/2000/svg">
<g clip-path="url(#clip0_49_525)">
<path d="M14.5 10.5001L11.328 7.32812" stroke="#254A82" stroke-width="2" stroke-linecap="round" stroke-linejoin="round"/>
<path d="M8.5 8C10.433 8 12 6.433 12 4.5C12 2.567 10.433 1 8.5 1C6.567 1 5 2.567 5 4.5C5 6.433 6.567 8 8.5 8Z" stroke="#254A82" stroke-width="2" stroke-linecap="round" stroke-linejoin="round"/>
<path fill-rule="evenodd" clip-rule="evenodd" d="M6.85355 11.1464C7.04882 11.3417 7.04882 11.6583 6.85355 11.8536L2.85355 15.8536C2.65829 16.0488 2.34171 16.0488 2.14645 15.8536L0.146447 13.8536C-0.0488155 13.6583 -0.0488155 13.3417 0.146447 13.1464C0.341709 12.9512 0.658291 12.9512 0.853553 13.1464L2.5 14.7929L6.14645 11.1464C6.34171 10.9512 6.65829 10.9512 6.85355 11.1464Z" fill="#009642"/>
</g>
<defs>
<clipPath id="clip0_49_525">
<rect width="16" height="16" fill="white"/>
</clipPath>
</defs>
</svg>
