<?xml version="1.0" encoding="UTF-8"?>
<svg width="16" height="16" viewBox="0 0 16 16" xmlns="http://www.w3.org/2000/svg">
<path d="M13 2H16V3H14L11 11H4L1.5 4H3L5 10H10L13 2Z" fill="#393939"/>
<path d="M2 4H13V5H2V4Z" fill="#393939"/>
<path d="M7.5 9L5 6H7V2H8V6H10L7.5 9Z" fill="#393939"/>
<path d="M6 13C6 13.5523 5.55228 14 5 14C4.44772 14 4 13.5523 4 13C4 12.4477 4.44772 12 5 12C5.55228 12 6 12.4477 6 13Z" fill="#393939"/>
<path d="M11 13C11 13.5523 10.5523 14 10 14C9.44772 14 9 13.5523 9 13C9 12.4477 9.44772 12 10 12C10.5523 12 11 12.4477 11 13Z" fill="#393939"/>
</svg>
