<svg width="16" height="16" viewBox="0 0 16 16" fill="none" xmlns="http://www.w3.org/2000/svg">
<path d="M4.42857 12.9997C5.21755 12.9997 5.85714 12.3601 5.85714 11.5711C5.85714 10.7822 5.21755 10.1426 4.42857 10.1426C3.63959 10.1426 3 10.7822 3 11.5711C3 12.3601 3.63959 12.9997 4.42857 12.9997Z" fill="#FF6600"/>
<path d="M13 13H11.0952C11.0952 8.53618 7.46382 4.90476 3 4.90476V3C8.51386 3 13 7.48591 13 13Z" fill="#FF6600"/>
<path d="M9.66667 12.9997H7.76191C7.76191 10.3739 5.62556 8.23777 3 8.23777V6.33301C6.67606 6.33301 9.66667 9.32362 9.66667 12.9997Z" fill="#FF6600"/>
</svg>
