<svg width="32" height="16" xmlns="http://www.w3.org/2000/svg" fill="none">

 <g>
  <title>Layer 1</title>
  <path id="svg_1" fill="#333333" d="m12.6667,15.0001c-0.0708,0 -0.1411,-0.0225 -0.2001,-0.0668l-5.24443,-3.9332l-3.5555,0c-0.36819,0 -0.66667,-0.2985 -0.66667,-0.6667l0,-4.66667c0,-0.36819 0.29848,-0.66667 0.66667,-0.66667l3.5555,0l5.24443,-3.93326c0.1011,-0.07618 0.2357,-0.08789 0.3492,-0.03158c0.1129,0.05664 0.1842,0.17187 0.1842,0.29818l0,13.3333c0,0.1263 -0.0713,0.2416 -0.1842,0.2982c-0.0472,0.0234 -0.0984,0.0352 -0.1491,0.0352z"/>
  <g>
   <g clip-path="url(#svg_2)">
    <path fill="#C6C6C6" d="m28.22226,14.63899c-0.0708,0 -0.1411,-0.0225 -0.2001,-0.0668l-5.24443,-3.9332l-3.5555,0c-0.36819,0 -0.66667,-0.2985 -0.66667,-0.6667l0,-4.66667c0,-0.36819 0.29848,-0.66667 0.66667,-0.66667l3.5555,0l5.24443,-3.93326c0.1011,-0.07618 0.2357,-0.08789 0.3492,-0.03158c0.1129,0.05664 0.1842,0.17187 0.1842,0.29818l0,13.3333c0,0.1263 -0.0713,0.2416 -0.1842,0.2982c-0.0472,0.0234 -0.0984,0.0352 -0.1491,0.0352z"/>
    <path fill="#999999" d="m21.55556,4.63889l-1,0l0,6l1,0l0,-6z"/>
    <path stroke-linejoin="round" stroke-linecap="round" stroke="#FC2020" d="m16.55556,15.63889l15,-15"/>
   </g>
   <defs transform="translate(-0.138889 0) translate(0.138889 0) translate(0 -0.138889) translate(0 -0.138889) translate(0 -0.138889) translate(8.05556 0.555556) translate(7.5 0) translate(0 -0.5)">
    <clipPath id="svg_2">
     <rect x="15.55556" y="-0.36111" fill="white" height="16" width="16"/>
    </clipPath>
   </defs>
  </g>
 </g>
</svg>