<?xml version="1.0" encoding="UTF-8"?>
<svg width="16" height="16" viewBox="0 0 16 16" xmlns="http://www.w3.org/2000/svg">
<g clip-path="url(#clip0)">
<rect width="16" height="16" fill="#ED2D24"/>
<path d="M2 3H3V4H2V3Z" fill="white"/>
<path d="M2 6H3V7H2V6Z" fill="white"/>
<path d="M2 9H3V10H2V9Z" fill="white"/>
<path d="M2 12H3V13H2V12Z" fill="white"/>
<path d="M5 3H14V4H5V3Z" fill="white"/>
<path d="M5 6H14V7H5V6Z" fill="white"/>
<path d="M5 9H14V10H5V9Z" fill="white"/>
<path d="M5 12H14V13H5V12Z" fill="white"/>
<circle cx="11.5" cy="11.5" r="5.5" fill="white" fill-opacity="0.8"/>
<circle cx="11.5" cy="11.5" r="4.5" fill="#2B741B"/>
<circle cx="11.5" cy="11.5" r="3.5" fill="#57C063"/>
<path d="M11 9H12V14H11V9Z" fill="white"/>
<path d="M14 11V12L9 12L9 11L14 11Z" fill="white"/>
</g>
<defs>
<clipPath id="clip0">
<rect width="16" height="16" fill="white"/>
</clipPath>
</defs>
</svg>
