<svg width="32" height="16" xmlns="http://www.w3.org/2000/svg" fill="none">

 <g>
  <title>Layer 1</title>
  <path id="svg_1" fill="#FF6600" d="m4.42857,12.9997c0.78898,0 1.42857,-0.6396 1.42857,-1.4286c0,-0.7889 -0.63959,-1.4285 -1.42857,-1.4285c-0.78898,0 -1.42857,0.6396 -1.42857,1.4285c0,0.789 0.63959,1.4286 1.42857,1.4286z"/>
  <path id="svg_2" fill="#FF6600" d="m13,13l-1.9048,0c0,-4.46382 -3.63138,-8.09524 -8.0952,-8.09524l0,-1.90476c5.51386,0 10,4.48591 10,10z"/>
  <path id="svg_3" fill="#FF6600" d="m9.66667,12.9997l-1.90476,0c0,-2.6258 -2.13635,-4.76193 -4.76191,-4.76193l0,-1.90476c3.67606,0 6.66667,2.99061 6.66667,6.66669z"/>
  <g>
   <g clip-path="url(#svg_4)">
    <path fill="#FF6600" d="m20.05864,13.15011c0.78898,0 1.42857,-0.6396 1.42857,-1.4286c0,-0.7889 -0.63959,-1.4285 -1.42857,-1.4285c-0.78898,0 -1.42857,0.6396 -1.42857,1.4285c0,0.789 0.63959,1.4286 1.42857,1.4286z"/>
    <path fill="#FF6600" d="m28.63007,13.15041l-1.9048,0c0,-4.46382 -3.63138,-8.09524 -8.0952,-8.09524l0,-1.90476c5.51386,0 10,4.48591 10,10z"/>
    <path fill="#FF6600" d="m25.29674,13.15011l-1.90476,0c0,-2.6258 -2.13635,-4.76193 -4.76191,-4.76193l0,-1.90476c3.67606,0 6.66667,2.99061 6.66667,6.66669z"/>
    <path stroke-linejoin="round" stroke-linecap="round" stroke="#FC2020" d="m16.63007,16.15041l15,-15"/>
   </g>
   <defs transform="translate(0.162601 0) translate(0 0.162601) translate(0 0.162601) translate(0.162601 0) translate(0.162601 0) translate(0 -0.162601) translate(0 -0.162601) translate(0 0.162601) translate(0 0.162601) translate(0 -0.162601) translate(-0.162601 0.487804) translate(7.80487 0) translate(7.5 0) translate(0 -0.5)">
    <clipPath id="svg_4">
     <rect x="15.63007" y="0.15041" fill="white" height="16" width="16"/>
    </clipPath>
   </defs>
  </g>
 </g>
</svg>