<svg width="16" height="16" viewBox="0 0 16 16" xmlns="http://www.w3.org/2000/svg">
<g opacity="0.8">
<path d="M6.98044 8.00002L0.316647 1.7282C-0.342799 1.10754 0.0964287 -2.83668e-08 1.00201 0L12.9589 9.16269e-08C13.8645 1.19994e-07 14.3037 1.10754 13.6442 1.7282L6.98044 8.00002Z" fill="#7A8891"/>
<path d="M4.98041 6.00002C4.98041 5.44773 5.42812 5.00002 5.98041 5.00002H7.98041C8.53269 5.00002 8.98041 5.44773 8.98041 6.00002V11C8.98041 11.5523 8.53269 12 7.98041 12H5.98041C5.42812 12 4.98041 11.5523 4.98041 11V6.00002Z" fill="#7A8891"/>
</g>
<path d="M7.00013 6.5L2.0001 2C1.52775 1.48279 2.0692 1 2.71786 1L11.2824 1C11.9311 1 12.4724 1.48279 12 2L7.00013 6.5Z" fill="#D9DFE5"/>
<path d="M6.00013 6.00001C6.00013 5.53977 6.32082 5.16668 6.71642 5.16668H7.28384C7.67944 5.16668 8.00013 5.53977 8.00013 6.00001V10.1667C8.00013 10.6269 7.67944 11 7.28384 11H6.71642C6.32082 11 6.00013 10.6269 6.00013 10.1667V6.00001Z" fill="#D9DFE5"/>
<circle cx="11.5" cy="11.5" r="4.5" fill="#59BF28"/>
<circle cx="11.5" cy="11.5" r="3.5" fill="#99FC76"/>
</svg>
