<?xml version="1.0" encoding="UTF-8"?>
<svg width="32" height="32" viewBox="0 0 32 32" xmlns="http://www.w3.org/2000/svg">
<circle cx="16" cy="16" r="16" fill="url(#paint0_linear)"/>
<path d="M19.1169 24.2374L18.8938 25.1907C18.1795 25.4888 17.4484 25.7448 16.7041 25.9573C16.2484 26.0881 15.778 26.1607 15.304 26.1734C14.9796 26.1985 14.6536 26.1566 14.3461 26.0503C14.0386 25.944 13.7562 25.7757 13.5165 25.5557C13.3207 25.3534 13.1671 25.114 13.0649 24.8516C12.9627 24.5892 12.9138 24.309 12.9212 24.0275C12.9221 23.7877 12.942 23.5483 12.9807 23.3117C13.02 23.0629 13.0846 22.7499 13.1744 22.3727L14.7504 16.0356C14.8297 15.6872 14.9065 15.3144 14.9807 14.9171C15.0485 14.5833 15.086 14.244 15.0925 13.9034C15.1395 13.5119 15.0415 13.1167 14.817 12.7926C14.4891 12.5669 14.0901 12.4687 13.695 12.5165C13.4025 12.524 13.1114 12.5581 12.8251 12.6182C12.4638 12.688 12.1888 12.7477 12 12.7972L12.2237 11.8439C12.8978 11.5331 13.5946 11.274 14.3081 11.0692C14.7818 10.9233 15.272 10.8379 15.7672 10.815C16.0866 10.7857 16.4086 10.8221 16.7133 10.9222C17.018 11.0222 17.299 11.1837 17.5389 11.3966C17.9213 11.8257 18.1193 12.3883 18.09 12.9624C18.0846 13.2069 18.0648 13.4508 18.0305 13.6929C17.9898 14.0044 17.93 14.3131 17.8516 14.6172L16.2659 20.9568C16.1666 21.3442 16.0802 21.7245 16.0066 22.0976C15.9409 22.3985 15.9038 22.7049 15.8958 23.0127C15.8706 23.2225 15.8914 23.4351 15.9567 23.636C16.0221 23.8369 16.1303 24.0211 16.274 24.1759C16.6352 24.4157 17.0668 24.526 17.4987 24.4891C17.7697 24.4819 18.0399 24.4569 18.3076 24.4144C18.5826 24.3827 18.8538 24.3235 19.1169 24.2374V24.2374Z" fill="white"/>
<path d="M18.2395 8.06711C19.3626 8.06711 20.273 7.15666 20.273 6.03356C20.273 4.91045 19.3626 4 18.2395 4C17.1164 4 16.2059 4.91045 16.2059 6.03356C16.2059 7.15666 17.1164 8.06711 18.2395 8.06711Z" fill="white"/>
<defs>
<linearGradient id="paint0_linear" x1="16" y1="0" x2="16" y2="32" gradientUnits="userSpaceOnUse">
<stop stop-color="#3FBFFE"/>
<stop offset="1" stop-color="#2EB1F2"/>
</linearGradient>
</defs>
</svg>
