<svg width="16" height="16" viewBox="0 0 16 16" fill="none" xmlns="http://www.w3.org/2000/svg">
<g clip-path="url(#clip0_8_271)">
<path d="M12.6667 15.0001C12.5959 15.0001 12.5256 14.9776 12.4666 14.9333L7.22217 11.0001H3.66667C3.29848 11.0001 3 10.7016 3 10.3334V5.66673C3 5.29854 3.29848 5.00006 3.66667 5.00006H7.22217L12.4666 1.0668C12.5677 0.990622 12.7023 0.978905 12.8158 1.03522C12.9287 1.09186 13 1.20709 13 1.3334V14.6667C13 14.793 12.9287 14.9083 12.8158 14.9649C12.7686 14.9883 12.7174 15.0001 12.6667 15.0001Z" fill="#C6C6C6"/>
<path d="M6 5H5V11H6V5Z" fill="#999999"/>
<path d="M1 16L16 1" stroke="#FC2020" stroke-linecap="round" stroke-linejoin="round"/>
</g>
<defs>
<clipPath id="clip0_8_271">
<rect width="16" height="16" fill="white"/>
</clipPath>
</defs>
</svg>
