<?xml version="1.0" encoding="UTF-8"?>
<svg width="16" height="16" viewBox="0 0 16 16" xmlns="http://www.w3.org/2000/svg">
<path fill-rule="evenodd" clip-rule="evenodd" d="M2 1H1V12H2V1ZM5 1H3V10H4.02747C4.12439 9.12317 4.47321 8.32233 5 7.67133V1ZM7 6.25604C6.64398 6.3819 6.30853 6.55127 6 6.75775V1H7V6.25604ZM12.9725 10C12.8231 8.64862 12.0754 7.47754 11 6.75775V1H13V10H12.9725ZM10 1H8V6H8.5H10V1ZM15 1H14V12H15V1Z" fill="#444444"/>
<path fill-rule="evenodd" clip-rule="evenodd" d="M11.5793 12.1651C11.8476 11.67 12 11.1028 12 10.5C12 8.567 10.433 7 8.5 7C6.567 7 5 8.567 5 10.5C5 12.433 6.567 14 8.5 14C9.10277 14 9.66995 13.8476 10.1651 13.5793L10.1719 13.5861L12.2889 15.7031C12.6794 16.0937 13.3126 16.0937 13.7031 15.7031C14.0936 15.3126 14.0936 14.6794 13.7031 14.2889L11.5861 12.1719L11.5793 12.1651ZM8.5 13C9.88071 13 11 11.8807 11 10.5C11 9.11929 9.88071 8 8.5 8C7.11929 8 6 9.11929 6 10.5C6 11.8807 7.11929 13 8.5 13Z" fill="#9D7B62"/>
<circle cx="8.5" cy="10.5" r="2.5" fill="white" fill-opacity="0.6"/>
</svg>
