<?xml version="1.0" encoding="UTF-8"?>
<svg width="16" height="16" viewBox="0 0 16 16" xmlns="http://www.w3.org/2000/svg">
<path fill-rule="evenodd" clip-rule="evenodd" d="M10.5793 11.1651C10.8476 10.67 11 10.1028 11 9.5C11 7.567 9.433 6 7.5 6C5.567 6 4 7.567 4 9.5C4 11.433 5.567 13 7.5 13C8.10277 13 8.66995 12.8476 9.16513 12.5793L9.17188 12.5861L11.2889 14.7031C11.6794 15.0937 12.3126 15.0937 12.7031 14.7031C13.0936 14.3126 13.0936 13.6794 12.7031 13.2889L10.5861 11.1719L10.5793 11.1651ZM7.5 12C8.88071 12 10 10.8807 10 9.5C10 8.11929 8.88071 7 7.5 7C6.11929 7 5 8.11929 5 9.5C5 10.8807 6.11929 12 7.5 12Z" fill="#2170A0"/>
<circle cx="7.5" cy="9.5" r="2.5" fill="white" fill-opacity="0.6"/>
<path fill-rule="evenodd" clip-rule="evenodd" d="M1 3C1 2.44772 1.44772 2 2 2H3C3.55228 2 4 2.44772 4 3V7H3V6H2V7H1V3ZM2 3.5C2 3.22386 2.22386 3 2.5 3C2.77614 3 3 3.22386 3 3.5V5H2V3.5Z" fill="#9F1200"/>
<path fill-rule="evenodd" clip-rule="evenodd" d="M13 2H11V5L13 4.5C13.5523 4.5 14 4 14 3.5C14 3 14 3 14 3C14 2.44769 13.5523 2 13 2ZM12.5 3H12V4H12.5C12.7761 4 13 3.77612 13 3.5C13 3.22388 12.7761 3 12.5 3Z" fill="#004E85"/>
<path fill-rule="evenodd" clip-rule="evenodd" d="M13 4.5L11 4V7H13C13.5523 7 14 6.55228 14 6C14 6 14 6 14 5.5C14 5 13.5523 4.5 13 4.5ZM12.5 5H12V6H12.5C12.7761 6 13 5.77614 13 5.5C13 5.22386 12.7761 5 12.5 5Z" fill="#004E85"/>
</svg>
