<svg width="48" height="48" viewBox="0 0 48 48" fill="none" xmlns="http://www.w3.org/2000/svg">
<path d="M9 3C7.34308 3 6 4.34308 6 6V12H9V9C9 7.34308 10.3431 6 12 6H36C37.6569 6 39 7.34308 39 9V24H42V6C42 4.34308 40.6569 3 39 3H9Z" fill="#898989"/>
<path d="M42 36H39V39C39 40.6569 37.6569 42 36 42H12C10.3431 42 9 40.6569 9 39V24H6V42C6 43.6569 7.34308 45 9 45H39C40.6569 45 42 43.6569 42 42V36Z" fill="#898989"/>
<path d="M7.5 18L15 27H0L7.5 18Z" fill="#898989"/>
<path d="M40.5 30L33 21L48 21L40.5 30Z" fill="#898989"/>
<path d="M15 9H33V12H15V9Z" fill="#898989"/>
<path d="M15 15H33V18H15V15Z" fill="#898989"/>
<path d="M15 15H33V18H15V15Z" fill="#898989"/>
<path d="M18 21H30V24H18V21Z" fill="#898989"/>
<path d="M18 27H33V30H18V27Z" fill="#898989"/>
<path d="M15 33H33V36H15V33Z" fill="#898989"/>
</svg>
